<?xml version="1.0" encoding="utf-8"?>
<!-- Generator: Adobe Illustrator 20.1.0, SVG Export Plug-In . SVG Version: 6.00 Build 0)  -->
<svg version="1.1" id="Layer_1" xmlns="http://www.w3.org/2000/svg" xmlns:xlink="http://www.w3.org/1999/xlink" x="0px" y="0px"
	 viewBox="0 0 211.3 191.8" style="enable-background:new 0 0 211.3 191.8;" xml:space="preserve">
<style type="text/css">
	.st0{fill:#FFFFFF;stroke:#1E1E1E;stroke-width:10;stroke-miterlimit:10;}
	.st1{fill:#FFFFFF;}
	.st2{fill:#010202;}
	.st3{fill:#FFFFFF;stroke:#000000;stroke-width:10;stroke-miterlimit:10;}
	.st4{fill:#1C1C1B;}
	.st5{fill:#A8938F;}
	.st6{fill:#FFFFFF;stroke:#60B44F;stroke-width:10;stroke-miterlimit:10;}
	.st7{fill:#5C4945;}
	.st8{fill:#DAD1CF;}
	.st9{fill:none;}
	.st10{fill:#60B44F;}
	.st11{fill:#252E5F;}
	.st12{fill:#ADA5A4;}
</style>
<rect x="1325.7" y="-66.7" class="st0" width="130.7" height="98"/>
<rect x="337.7" y="-362.3" transform="matrix(0.8046 0.5938 -0.5938 0.8046 -134.6726 -306.5792)" width="121.7" height="8.8"/>
<rect x="283.6" y="-363.5" transform="matrix(-0.6038 0.7971 -0.7971 -0.6038 240.6283 -837.7698)" width="89.7" height="8.8"/>
<rect x="497.5" y="-363.5" transform="matrix(-0.8046 0.5938 -0.5938 -0.8046 794.4078 -979.5626)" width="121.7" height="8.8"/>
<rect x="583.5" y="-364.6" transform="matrix(0.6038 0.7971 -0.7971 0.6038 -38.1897 -643.6376)" width="89.7" height="8.8"/>
<text transform="matrix(0.6016 -0.7988 0.7988 0.6016 305.4424 -340.4216)" style="font-family:'Quicksand-Regular'; font-size:36px;">Bild </text>
<text transform="matrix(0.8079 0.5893 -0.5893 0.8079 361.6322 -392.9344)" style="font-family:'Quicksand-Regular'; font-size:36px;">Terapi</text>
<text transform="matrix(1 0 0 1 307.5878 -292.994)" style="font-family:'Quicksand-Bold'; font-size:48px;">Huset</text>
<rect x="345.2" y="-226.3" transform="matrix(0.8046 0.5938 -0.5938 0.8046 -52.4522 -284.4555)" width="121.7" height="8.8"/>
<rect x="291.1" y="-227.5" transform="matrix(-0.6038 0.7971 -0.7971 -0.6038 361.0561 -625.6275)" width="89.7" height="8.8"/>
<text transform="matrix(0.6016 -0.7988 0.7988 0.6016 312.9344 -204.4216)" style="font-family:'Quicksand-Bold'; font-size:36px;">Bild </text>
<text transform="matrix(0.8079 0.5893 -0.5893 0.8079 369.1244 -256.9344)" style="font-family:'Quicksand-Bold'; font-size:36px;">Terapi</text>
<text transform="matrix(1 0 0 1 315.0799 -156.994)" style="font-family:'Quicksand-Regular'; font-size:48px;">Huset</text>
<rect x="347.3" y="-89.2" transform="matrix(0.8046 0.5938 -0.5938 0.8046 29.4065 -258.9435)" width="121.7" height="8.8"/>
<rect x="293.3" y="-90.3" transform="matrix(-0.6038 0.7971 -0.7971 -0.6038 473.849 -407.4007)" width="89.7" height="8.8"/>
<text transform="matrix(0.6016 -0.7988 0.7988 0.6016 315.097 -67.2771)" style="font-family:'Quicksand-Light'; font-size:36px;">Bild </text>
<text transform="matrix(0.8079 0.5893 -0.5893 0.8079 371.287 -119.7896)" style="font-family:'Quicksand-Light'; font-size:36px;">Terapi</text>
<text transform="matrix(1 0 0 1 317.2424 -19.8492)" style="font-family:'Quicksand-Regular'; font-size:48px;">Huset</text>
<text transform="matrix(0.803 -0.596 0.596 0.803 522.1642 -340.3757)" style="font-family:'Quicksand-Regular'; font-size:48px;">Bild</text>
<text transform="matrix(0.6041 0.7969 -0.7969 0.6041 605.6633 -402.8746)" style="font-family:'Quicksand-Regular'; font-size:32px;">Terapi</text>
<text transform="matrix(1 0 0 1 518.2299 -292.9941)" style="font-family:'Quicksand-Bold'; font-size:48px;">Huset</text>
<rect x="912.3" y="-408.4" width="200" height="100"/>
<rect x="922.3" y="-398.4" class="st1" width="180" height="80"/>
<rect x="912.3" y="-296.9" width="200" height="100"/>
<rect x="922.3" y="-286.9" class="st1" width="180" height="80"/>
<rect x="1125.9" y="-408.4" width="200" height="100"/>
<rect x="1130.9" y="-403.4" class="st1" width="190" height="90"/>
<rect x="1122.3" y="-396.8" transform="matrix(0.7504 -0.661 0.661 0.7504 546.0726 655.0592)" class="st2" width="36" height="2.7"/>
<rect x="1293.5" y="-322.6" transform="matrix(0.7504 -0.661 0.661 0.7504 539.7721 786.7646)" class="st2" width="36" height="2.7"/>
<rect x="1122.3" y="-322.6" transform="matrix(-0.7504 -0.661 0.661 -0.7504 2208.3115 191.4671)" class="st2" width="36" height="2.7"/>
<rect x="1293.5" y="-396.8" transform="matrix(-0.7504 -0.661 0.661 -0.7504 2557.0576 174.7837)" class="st2" width="36" height="2.7"/>
<rect x="909.7" y="-205.5" transform="matrix(0.7071 -0.7071 0.7071 0.7071 412.5027 589.9103)" class="st1" width="17.3" height="5"/>
<rect x="1098" y="-293.2" transform="matrix(0.7071 -0.7071 0.7071 0.7071 529.6885 697.3218)" class="st1" width="17.3" height="5"/>
<rect x="909.7" y="-293.2" transform="matrix(-0.7071 -0.7071 0.7071 -0.7071 1773.2748 153.0551)" class="st1" width="17.3" height="5"/>
<rect x="1098" y="-205.5" transform="matrix(-0.7071 -0.7071 0.7071 -0.7071 2032.589 435.9666)" class="st1" width="17.3" height="5"/>
<text transform="matrix(1 0 0 1 930.2546 -262.3528)" style="font-family:'Quicksand-Bold'; font-size:24px;">Bild</text>
<text transform="matrix(1 0 0 1 962.5046 -239.3528)" style="font-family:'Quicksand-Bold'; font-size:24px;">Terapi </text>
<text transform="matrix(1 0 0 1 1029.1069 -213.2505)" style="font-family:'Quicksand-Bold'; font-size:24px;">Huset</text>
<rect x="912" y="-188.2" width="200" height="100"/>
<rect x="922" y="-178.2" class="st1" width="180" height="80"/>
<rect x="909.5" y="-96.8" transform="matrix(0.7071 -0.7071 0.7071 0.7071 335.6032 621.5921)" class="st1" width="17.3" height="5"/>
<rect x="1097.7" y="-184.6" transform="matrix(0.7071 -0.7071 0.7071 0.7071 452.789 729.0036)" class="st1" width="17.3" height="5"/>
<rect x="909.5" y="-184.6" transform="matrix(-0.7071 -0.7071 0.7071 -0.7071 1696.0833 338.415)" class="st1" width="17.3" height="5"/>
<rect x="1097.7" y="-96.8" transform="matrix(-0.7071 -0.7071 0.7071 -0.7071 1955.3975 621.3265)" class="st1" width="17.3" height="5"/>
<rect x="969.8" y="-172" class="st1" width="2.9" height="2.1"/>
<g>
	<path d="M1068.6-110.7l-87.3-35c-0.8-0.3-1.2-1.3-0.8-2l3.6-8c0.4-0.8,1.3-1.1,2.1-0.7l83.7,43
		C1071.6-112.6,1070.4-110,1068.6-110.7z"/>
	<path class="st1" d="M990.5-148.8c-2.3,5-11.2,5.9-20,1.9s-10.2-9.1-17.7-22.4c10,5.3,17.3,2.3,26,4.2
		C987.6-163.2,992.8-153.8,990.5-148.8z"/>
	<path d="M986.1-151.5c-2.3,5-11.2,5.9-20,1.9s-10.2-9.1-17.7-22.4c10,5.3,17.3,2.3,26,4.2C983.1-165.8,988.4-156.5,986.1-151.5z"/>
</g>
<rect x="934.2" y="-66.7" class="st3" width="130.7" height="98"/>
<rect x="926.6" y="27.9" transform="matrix(0.7071 -0.7071 0.7071 0.7071 252.4258 670.1727)" class="st1" width="17.3" height="5"/>
<rect x="1055.4" y="-68.2" transform="matrix(0.7071 -0.7071 0.7071 0.7071 358.1065 733.179)" class="st1" width="17.3" height="5"/>
<rect x="926.6" y="-68.2" transform="matrix(-0.7071 -0.7071 0.7071 -0.7071 1642.9021 549.1457)" class="st1" width="17.3" height="5"/>
<rect x="1055.4" y="28.4" transform="matrix(-0.7071 -0.7071 0.7071 -0.7071 1794.6548 805.1464)" class="st1" width="17.3" height="5"/>
<text transform="matrix(1 0 0 1 908.5851 57.9237)" style="font-family:'Quicksand-Bold'; font-size:21px;">BILDTERAPIHUSET</text>
<rect x="959.9" y="-46.8" class="st1" width="2.9" height="2.1"/>
<g>
	<path d="M1053.2,21.7l-81-47.9c-0.7-0.4-1-1.4-0.5-2.1l4.8-7.3c0.5-0.7,1.5-0.9,2.2-0.4l76.2,55.2
		C1056.4,20.3,1054.8,22.6,1053.2,21.7z"/>
	<path class="st1" d="M981.8-27.9c-3,4.6-12,4.1-20-1.2c-8-5.3-8.7-10.6-14.1-24.9c9.1,6.7,16.7,4.9,25.1,8.2
		C981.1-42.6,984.9-32.5,981.8-27.9z"/>
	<path d="M977.8-31.2c-3,4.6-12,4.1-20-1.2c-8-5.3-8.7-10.6-14.1-24.9c9.1,6.7,16.7,4.9,25.1,8.2S980.9-35.8,977.8-31.2z"/>
</g>
<rect x="1125.7" y="-66.7" class="st3" width="130.7" height="98"/>
<rect x="1118" y="27.9" transform="matrix(0.7071 -0.7071 0.7071 0.7071 308.4966 805.5395)" class="st1" width="17.3" height="5"/>
<rect x="1246.9" y="-68.2" transform="matrix(0.7071 -0.7071 0.7071 0.7071 414.1774 868.5458)" class="st1" width="17.3" height="5"/>
<rect x="1118" y="-68.2" transform="matrix(-0.7071 -0.7071 0.7071 -0.7071 1969.7067 684.5123)" class="st1" width="17.3" height="5"/>
<rect x="1246.9" y="28.4" transform="matrix(-0.7071 -0.7071 0.7071 -0.7071 2121.4595 940.513)" class="st1" width="17.3" height="5"/>
<text transform="matrix(1 0 0 1 1100.0227 57.9236)" style="font-family:'Quicksand-Bold'; font-size:21px;">BILDTERAPIHUSET</text>
<rect x="1151.3" y="-46.8" class="st1" width="2.9" height="2.1"/>
<path class="st4" d="M1244.6,21.7l-81-47.9c-0.7-0.4-1-1.4-0.5-2.1l4.8-7.3c0.5-0.7,1.5-0.9,2.2-0.4l76.2,55.2
	C1247.8,20.3,1246.3,22.6,1244.6,21.7z"/>
<path class="st1" d="M1173.3-27.9c-3,4.6-12,4.1-20-1.2c-8-5.3-8.7-10.6-14.1-24.9c9.1,6.7,16.7,4.9,25.1,8.2
	C1172.5-42.6,1176.3-32.5,1173.3-27.9z"/>
<path class="st5" d="M1169.3-31.2c-3,4.6-12,4.1-20-1.2c-8-5.3-8.7-10.6-14.1-24.9c9.1,6.7,16.7,4.9,25.1,8.2
	C1168.5-45.8,1172.3-35.8,1169.3-31.2z"/>
<rect x="924.4" y="75.6" class="st6" width="130.7" height="98"/>
<rect x="916.7" y="170.1" transform="matrix(0.7071 -0.7071 0.7071 0.7071 148.9731 704.8842)" class="st1" width="17.3" height="5"/>
<rect x="1045.6" y="74.1" transform="matrix(0.7071 -0.7071 0.7071 0.7071 254.6539 767.8906)" class="st1" width="17.3" height="5"/>
<rect x="916.7" y="74.1" transform="matrix(-0.7071 -0.7071 0.7071 -0.7071 1525.5536 785.0067)" class="st1" width="17.3" height="5"/>
<rect x="1045.6" y="170.6" transform="matrix(-0.7071 -0.7071 0.7071 -0.7071 1677.3064 1041.0073)" class="st1" width="17.3" height="5"/>
<text transform="matrix(1 0 0 1 898.7593 200.1579)" class="st11" style="font-family:'Quicksand-Bold'; font-size:21px;">BILDTERAPIHUSET</text>
<rect x="950.1" y="95.4" class="st1" width="2.9" height="2.1"/>
<path class="st7" d="M1043.3,163.9l-81-47.9c-0.7-0.4-1-1.4-0.5-2.1l4.8-7.3c0.5-0.7,1.5-0.9,2.2-0.4l76.2,55.2
	C1046.6,162.5,1045,164.9,1043.3,163.9z"/>
<path class="st1" d="M972,114.3c-3,4.6-12,4.1-20-1.2c-8-5.3-8.7-10.6-14.1-24.9c9.1,6.7,16.7,4.9,25.1,8.2
	C971.3,99.7,975,109.7,972,114.3z"/>
<path class="st8" d="M968,111.1c-3,4.6-12,4.1-20-1.2c-8-5.3-8.7-10.6-14.1-24.9c9.1,6.7,16.7,4.9,25.1,8.2
	C967.3,96.4,971,106.4,968,111.1z"/>
<rect x="1119.8" y="75.6" class="st6" width="130.7" height="98"/>
<rect x="1112.1" y="170.1" transform="matrix(0.7071 -0.7071 0.7071 0.7071 206.1851 843.0056)" class="st1" width="17.3" height="5"/>
<rect x="1241" y="74.1" transform="matrix(0.7071 -0.7071 0.7071 0.7071 311.8659 906.012)" class="st1" width="17.3" height="5"/>
<rect x="1112.1" y="74.1" transform="matrix(-0.7071 -0.7071 0.7071 -0.7071 1859.0087 923.1277)" class="st1" width="17.3" height="5"/>
<rect x="1241" y="170.6" transform="matrix(-0.7071 -0.7071 0.7071 -0.7071 2010.7614 1179.1284)" class="st1" width="17.3" height="5"/>
<text transform="matrix(1 0 0 1 1113.0923 197.0176)" class="st11" style="font-family:'Quicksand-Bold'; font-size:16.1155px;">BILDTERAPIHUSET</text>
<rect x="1145.4" y="95.4" class="st1" width="2.9" height="2.1"/>
<path class="st7" d="M1238.7,163.9l-81-47.9c-0.7-0.4-1-1.4-0.5-2.1l4.8-7.3c0.5-0.7,1.5-0.9,2.2-0.4l76.2,55.2
	C1241.9,162.5,1240.3,164.9,1238.7,163.9z"/>
<path class="st1" d="M1167.3,114.3c-3,4.6-12,4.1-20-1.2s-8.7-10.6-14.1-24.9c9.1,6.7,16.7,4.9,25.1,8.2
	C1166.6,99.7,1170.4,109.7,1167.3,114.3z"/>
<path class="st8" d="M1163.3,111.1c-3,4.6-12,4.1-20-1.2s-8.7-10.6-14.1-24.9c9.1,6.7,16.7,4.9,25.1,8.2
	C1162.6,96.4,1166.4,106.4,1163.3,111.1z"/>
<polygon class="st9" points="100.3,184.6 106.8,184.6 103.5,173.6 "/>
<path class="st9" d="M120.1,172.4h-3.9v8.6h3.9c1.2,0,2.2-0.3,2.8-1c0.7-0.7,1-1.7,1-3.1v-0.4c0-1.4-0.3-2.4-1-3.1
	C122.2,172.8,121.3,172.4,120.1,172.4z"/>
<path class="st9" d="M92,176.2c0-2.5-1.3-3.8-4-3.8h-3.8v7.6H88C90.7,180,92,178.8,92,176.2z"/>
<path class="st9" d="M8.8,178.1c0.6-0.5,0.8-1.4,0.8-2.6c0-2.1-1.2-3.1-3.6-3.1H2.5v6.5h3.7C7.3,179,8.2,178.7,8.8,178.1z"/>
<path class="st9" d="M6.4,181H2.5v8.3h3.9c2.5,0,3.7-1.3,3.7-4v-0.5c0-1.3-0.3-2.3-0.9-2.9C8.6,181.3,7.6,181,6.4,181z"/>
<path class="st9" d="M42.5,172.4h-3.8v16.9h3.8c1.2,0,2.2-0.3,2.8-1c0.7-0.7,1-1.7,1-3.1v-8.6c0-1.4-0.3-2.4-1-3.1
	C44.7,172.8,43.7,172.4,42.5,172.4z"/>
<polygon class="st10" points="188.4,144.6 188.8,144.3 21.4,144.3 6.7,159 202.8,159 "/>
<polygon class="st10" points="16.2,139.1 16.2,20 1.5,5.3 1.5,153.8 "/>
<polygon class="st10" points="193.9,20.1 193.9,139.7 208.6,154.4 208.6,5.4 "/>
<polygon class="st10" points="21.3,14.7 188.9,14.7 203.6,0 6.6,0 "/>
<path class="st11" d="M9.6,180c0.8-0.3,1.4-0.9,1.8-1.7c0.4-0.8,0.7-1.8,0.7-3.1c0-1.9-0.5-3.2-1.6-3.9c-1.1-0.7-2.5-1.1-4.3-1.1h-5
	c-0.3,0-0.6,0.1-0.8,0.2c-0.2,0.2-0.3,0.4-0.3,0.6v19.6c0,0.2,0.1,0.4,0.3,0.6c0.2,0.2,0.5,0.2,0.8,0.2h5.7c1.8,0,3.2-0.5,4.2-1.5
	c1.1-1,1.6-2.5,1.6-4.6v-0.5c0-1.4-0.3-2.5-0.8-3.2C11.3,180.9,10.6,180.4,9.6,180z M2.5,172.4H6c2.4,0,3.6,1,3.6,3.1
	c0,1.2-0.3,2.1-0.8,2.6c-0.6,0.5-1.5,0.8-2.7,0.8H2.5V172.4z M10.1,185.3c0,2.7-1.2,4-3.7,4H2.5V181h3.9c1.2,0,2.2,0.3,2.8,0.9
	c0.6,0.6,0.9,1.6,0.9,2.9V185.3z"/>
<path class="st11" d="M18,170.4c-0.2-0.1-0.5-0.2-0.9-0.2c-0.3,0-0.6,0.1-0.9,0.2s-0.4,0.4-0.4,0.6v19.6c0,0.3,0.1,0.5,0.4,0.6
	c0.2,0.2,0.5,0.2,0.9,0.2c0.3,0,0.6-0.1,0.9-0.2c0.2-0.2,0.4-0.4,0.4-0.6V171C18.4,170.8,18.3,170.6,18,170.4z"/>
<path class="st11" d="M33,189.3h-8V171c0-0.3-0.1-0.5-0.4-0.6c-0.2-0.1-0.5-0.2-0.9-0.2c-0.3,0-0.6,0.1-0.9,0.2
	c-0.2,0.1-0.4,0.4-0.4,0.6v19.6c0,0.3,0.1,0.5,0.3,0.6c0.2,0.2,0.5,0.2,0.8,0.2H33c0.3,0,0.4-0.1,0.6-0.3c0.1-0.2,0.2-0.5,0.2-0.8
	s-0.1-0.5-0.2-0.8C33.4,189.4,33.2,189.3,33,189.3z"/>
<path class="st11" d="M42.5,170.2h-5.2c-0.3,0-0.6,0.1-0.8,0.2c-0.2,0.2-0.3,0.4-0.3,0.6v19.7c0,0.2,0.1,0.4,0.3,0.6
	c0.2,0.2,0.5,0.2,0.8,0.2h5.2c1.9,0,3.4-0.5,4.6-1.5s1.7-2.6,1.7-4.8v-8.6c0-2.2-0.6-3.8-1.7-4.8C45.9,170.7,44.4,170.2,42.5,170.2z
	 M46.3,185.2c0,1.4-0.3,2.4-1,3.1c-0.7,0.7-1.6,1-2.8,1h-3.8v-16.9h3.8c1.2,0,2.2,0.3,2.8,1c0.7,0.7,1,1.7,1,3.1V185.2z"/>
<path class="st11" d="M63.4,170.2H51.5c-0.3,0-0.5,0.1-0.6,0.3c-0.2,0.2-0.2,0.5-0.2,0.8c0,0.3,0.1,0.6,0.2,0.8
	c0.2,0.2,0.4,0.3,0.6,0.3h4.7v18.3c0,0.3,0.1,0.5,0.4,0.6c0.2,0.2,0.5,0.2,0.9,0.2c0.3,0,0.6-0.1,0.9-0.2c0.2-0.2,0.4-0.4,0.4-0.6
	v-18.3h4.7c0.3,0,0.5-0.1,0.6-0.3c0.2-0.2,0.2-0.5,0.2-0.8c0-0.3-0.1-0.5-0.2-0.8C63.9,170.3,63.6,170.2,63.4,170.2z"/>
<path class="st11" d="M78.2,172.4c0.3,0,0.5-0.1,0.6-0.3c0.2-0.2,0.2-0.5,0.2-0.8c0-0.3-0.1-0.5-0.2-0.8c-0.1-0.2-0.4-0.3-0.6-0.3
	H67.8c-0.3,0-0.6,0.1-0.8,0.2c-0.2,0.2-0.3,0.4-0.3,0.6v19.6c0,0.3,0.1,0.5,0.3,0.6c0.2,0.2,0.5,0.2,0.8,0.2h10.4
	c0.3,0,0.5-0.1,0.6-0.3c0.1-0.2,0.2-0.5,0.2-0.8c0-0.3-0.1-0.6-0.2-0.8c-0.2-0.2-0.4-0.3-0.6-0.3h-9.1v-7.4h4.6
	c0.3,0,0.5-0.1,0.6-0.3c0.1-0.2,0.2-0.4,0.2-0.7c0-0.3-0.1-0.5-0.2-0.7c-0.2-0.2-0.4-0.3-0.6-0.3h-4.6v-7.4H78.2z"/>
<path class="st11" d="M90.1,181.7c2.9-0.6,4.4-2.5,4.4-5.7c0-2.1-0.6-3.6-1.8-4.5c-1.2-0.9-2.8-1.4-4.7-1.4h-5.3
	c-0.3,0-0.5,0.1-0.6,0.3c-0.2,0.2-0.2,0.3-0.2,0.6v19.6c0,0.3,0.1,0.5,0.4,0.6c0.2,0.2,0.5,0.2,0.9,0.2c0.3,0,0.6-0.1,0.9-0.2
	c0.2-0.2,0.4-0.4,0.4-0.6v-8.6h3.4l4.4,8.6c0.3,0.6,0.7,1,1.1,1c0.4,0,0.7-0.1,1-0.4c0.3-0.3,0.5-0.5,0.5-0.9c0-0.1,0-0.3-0.1-0.4
	L90.1,181.7z M84.2,180v-7.6H88c2.7,0,4,1.3,4,3.8c0,2.6-1.3,3.8-4,3.8H84.2z"/>
<path class="st11" d="M111,190.4l-6-19.5c-0.2-0.6-0.7-0.9-1.5-0.9c-0.8,0-1.3,0.3-1.5,0.9l-6,19.4c0,0.1-0.1,0.2-0.1,0.2
	c0,0.3,0.2,0.5,0.5,0.7c0.3,0.2,0.6,0.3,1,0.3c0.5,0,0.8-0.2,0.9-0.6l1.3-4.3h7.7l1.3,4.3c0.1,0.4,0.4,0.6,0.9,0.6
	c0.4,0,0.7-0.1,1-0.3c0.3-0.2,0.5-0.4,0.5-0.7c0,0,0,0,0-0.1C111.1,190.4,111,190.4,111,190.4z M100.3,184.6l3.3-11l3.2,11H100.3z"
	/>
<path class="st11" d="M120.2,170.2h-5.5c-0.3,0-0.5,0.1-0.7,0.2c-0.2,0.2-0.3,0.4-0.3,0.6v19.6c0,0.3,0.1,0.5,0.4,0.6
	c0.2,0.2,0.5,0.2,0.9,0.2c0.3,0,0.6-0.1,0.9-0.2c0.2-0.2,0.4-0.4,0.4-0.6v-7.6h3.9c1.9,0,3.4-0.5,4.6-1.5s1.7-2.6,1.7-4.8v-0.3
	c0-2.2-0.6-3.8-1.7-4.8C123.6,170.7,122.1,170.2,120.2,170.2z M123.9,176.9c0,1.4-0.3,2.4-1,3.1c-0.7,0.7-1.6,1-2.8,1h-3.9v-8.6h3.9
	c1.2,0,2.2,0.3,2.8,1c0.7,0.7,1,1.7,1,3.1V176.9z"/>
<path class="st11" d="M131.4,170.4c-0.2-0.1-0.5-0.2-0.9-0.2c-0.3,0-0.6,0.1-0.9,0.2s-0.4,0.4-0.4,0.6v19.6c0,0.3,0.1,0.5,0.4,0.6
	c0.2,0.2,0.5,0.2,0.9,0.2c0.3,0,0.6-0.1,0.9-0.2c0.2-0.2,0.4-0.4,0.4-0.6V171C131.8,170.8,131.6,170.6,131.4,170.4z"/>
<path class="st11" d="M148.4,170.4c-0.2-0.1-0.5-0.2-0.9-0.2c-0.3,0-0.6,0.1-0.9,0.2c-0.2,0.1-0.4,0.4-0.4,0.6v8.4h-7.9V171
	c0-0.3-0.1-0.5-0.4-0.6c-0.2-0.1-0.5-0.2-0.9-0.2c-0.3,0-0.6,0.1-0.9,0.2s-0.4,0.4-0.4,0.6v19.6c0,0.3,0.1,0.5,0.4,0.6
	c0.2,0.2,0.5,0.2,0.9,0.2c0.3,0,0.6-0.1,0.9-0.2c0.2-0.2,0.4-0.4,0.4-0.6v-9.2h7.9v9.2c0,0.3,0.1,0.5,0.4,0.6
	c0.2,0.2,0.5,0.2,0.9,0.2c0.3,0,0.6-0.1,0.9-0.2c0.2-0.2,0.4-0.4,0.4-0.6V171C148.7,170.8,148.6,170.6,148.4,170.4z"/>
<path class="st11" d="M165.2,170.4c-0.2-0.1-0.5-0.2-0.9-0.2c-0.8,0-1.2,0.3-1.2,0.8v14.3c0,1.4-0.3,2.4-1,3.1c-0.7,0.7-1.7,1-2.9,1
	c-2.6,0-3.9-1.4-3.9-4.1V171c0-0.3-0.1-0.5-0.4-0.6c-0.2-0.1-0.5-0.2-0.9-0.2c-0.3,0-0.6,0.1-0.9,0.2c-0.2,0.1-0.4,0.4-0.4,0.6v14.3
	c0,2.2,0.6,3.8,1.7,4.8c1.2,1,2.7,1.5,4.6,1.5c1.9,0,3.5-0.5,4.6-1.5c1.2-1,1.8-2.6,1.8-4.8V171
	C165.6,170.8,165.4,170.6,165.2,170.4z"/>
<path class="st11" d="M177.7,180c-0.9-0.4-1.9-0.8-2.8-1.1c-0.9-0.3-1.7-0.8-2.4-1.3c-0.7-0.6-1-1.3-1-2.2c0-1.1,0.4-1.8,1.1-2.3
	c0.7-0.5,1.7-0.7,2.9-0.7c1,0,1.9,0.2,2.7,0.6c0.8,0.4,1.3,0.6,1.3,0.6c0.3,0,0.6-0.2,0.8-0.5c0.2-0.3,0.3-0.6,0.3-0.9
	c0-0.6-0.6-1.1-1.7-1.5c-1.1-0.3-2.3-0.5-3.5-0.5c-0.8,0-1.5,0.1-2.2,0.3c-0.7,0.2-1.4,0.5-2,0.8c-0.7,0.4-1.2,1-1.6,1.7
	s-0.6,1.6-0.6,2.7c0,1.3,0.3,2.4,1,3.2c0.7,0.8,1.5,1.4,2.4,1.8c0.9,0.4,1.9,0.8,2.8,1.1c0.9,0.4,1.7,0.9,2.4,1.5
	c0.7,0.7,1,1.5,1,2.6c0,1.2-0.4,2.1-1.1,2.7c-0.7,0.6-1.7,0.9-3,0.9c-0.8,0-1.5-0.1-2.1-0.4c-0.6-0.2-1.1-0.5-1.4-0.8
	c-0.3-0.3-0.6-0.6-0.8-0.8c-0.3-0.2-0.5-0.4-0.7-0.4c-0.3,0-0.5,0.1-0.7,0.4c-0.2,0.3-0.3,0.6-0.3,0.9c0,0.7,0.6,1.4,1.8,2.2
	c1.2,0.7,2.7,1.1,4.4,1.1c1.9,0,3.5-0.5,4.6-1.5c1.2-1,1.8-2.5,1.8-4.5c0-1.5-0.3-2.7-1-3.6C179.4,181.2,178.7,180.5,177.7,180z"/>
<path class="st11" d="M195.8,172.4c0.3,0,0.5-0.1,0.6-0.3c0.2-0.2,0.2-0.5,0.2-0.8c0-0.3-0.1-0.5-0.2-0.8c-0.1-0.2-0.4-0.3-0.6-0.3
	h-10.4c-0.3,0-0.6,0.1-0.8,0.2c-0.2,0.2-0.3,0.4-0.3,0.6v19.6c0,0.3,0.1,0.5,0.3,0.6c0.2,0.2,0.5,0.2,0.8,0.2h10.4
	c0.3,0,0.5-0.1,0.6-0.3c0.1-0.2,0.2-0.5,0.2-0.8c0-0.3-0.1-0.6-0.2-0.8c-0.2-0.2-0.4-0.3-0.6-0.3h-9.1v-7.4h4.6
	c0.3,0,0.5-0.1,0.6-0.3c0.1-0.2,0.2-0.4,0.2-0.7c0-0.3-0.1-0.5-0.2-0.7c-0.2-0.2-0.4-0.3-0.6-0.3h-4.6v-7.4H195.8z"/>
<path class="st11" d="M210.4,170.2h-11.9c-0.3,0-0.5,0.1-0.6,0.3c-0.2,0.2-0.2,0.5-0.2,0.8c0,0.3,0.1,0.6,0.2,0.8
	c0.2,0.2,0.4,0.3,0.6,0.3h4.7v18.3c0,0.3,0.1,0.5,0.4,0.6c0.2,0.2,0.5,0.2,0.9,0.2c0.3,0,0.6-0.1,0.9-0.2c0.2-0.2,0.4-0.4,0.4-0.6
	v-18.3h4.7c0.3,0,0.5-0.1,0.6-0.3c0.2-0.2,0.2-0.5,0.2-0.8c0-0.3-0.1-0.5-0.2-0.8C210.9,170.3,210.7,170.2,210.4,170.2z"/>
<path class="st7" d="M186.4,133.7L80.3,56.8c0.3,2.9-0.1,5.7-1.4,7.7c-2,3.1-5.9,4.6-10.6,4.6l115.6,68.4
	C186.4,138.9,188.7,135.4,186.4,133.7z"/>
<path class="st12" d="M43.5,57.9c11.8,7.8,25,8.5,29.5,1.8c4.5-6.8-1.1-21.6-13.3-26.3c-12.3-4.8-23.5-2.1-36.9-12
	C30.8,42.3,31.7,50.1,43.5,57.9z"/>
<polygon points="782.4,166.2 782.8,165.9 615.4,165.9 600.6,180.6 796.8,180.6 "/>
<polygon points="610.2,160.7 610.2,41.6 595.4,26.9 595.4,175.4 "/>
<polygon points="787.9,41.7 787.9,161.3 802.6,176 802.6,27 "/>
<polygon points="615.3,36.3 782.9,36.3 797.6,21.6 600.6,21.6 "/>
<path class="st1" d="M787.9,161.3V41.7L802.6,27l3-3l-5.2-5.2l-2.8,2.8l-14.7,14.7H615.3l-14.7-14.7l-2.8-2.8l-5.2,5.2l2.8,2.8
	l14.7,14.7v119.1l-14.7,14.7l-2.8,2.8l5.2,5.2l2.8-2.8l14.7-14.7h167.4l-0.3,0.3l14.4,14.4l3.6,3.6l5.2-5.2l-3-3L787.9,161.3z
	 M616.7,42.8c13.4,9.9,24.6,7.3,36.9,12c12.3,4.8,17.8,19.6,13.3,26.3c-4.5,6.8-17.7,6-29.5-1.8S624.8,63.9,616.7,42.8z M777.9,159
	L662.3,90.6c4.7,0,8.5-1.5,10.6-4.6c1.3-2,1.7-4.7,1.4-7.7l106.1,76.9C782.7,157,780.4,160.5,777.9,159z"/>
<g>
	<path d="M603.6,201.6c0.8-0.3,1.4-0.9,1.8-1.7c0.4-0.8,0.7-1.8,0.7-3.1c0-1.9-0.5-3.2-1.6-3.9c-1.1-0.7-2.5-1.1-4.3-1.1h-5
		c-0.3,0-0.6,0.1-0.8,0.2c-0.2,0.2-0.3,0.4-0.3,0.6v19.6c0,0.2,0.1,0.4,0.3,0.6c0.2,0.2,0.5,0.2,0.8,0.2h5.7c1.8,0,3.2-0.5,4.2-1.5
		c1.1-1,1.6-2.5,1.6-4.6v-0.5c0-1.4-0.3-2.5-0.8-3.2C605.3,202.5,604.5,202,603.6,201.6z M596.4,194h3.6c2.4,0,3.6,1,3.6,3.1
		c0,1.2-0.3,2.1-0.8,2.6c-0.6,0.5-1.5,0.8-2.7,0.8h-3.7V194z M604.1,206.9c0,2.7-1.2,4-3.7,4h-3.9v-8.3h3.9c1.2,0,2.2,0.3,2.8,0.9
		c0.6,0.6,0.9,1.6,0.9,2.9V206.9z"/>
	<path d="M612,192c-0.2-0.1-0.5-0.2-0.9-0.2c-0.3,0-0.6,0.1-0.9,0.2c-0.2,0.1-0.4,0.4-0.4,0.6v19.6c0,0.3,0.1,0.5,0.4,0.6
		c0.2,0.2,0.5,0.2,0.9,0.2c0.3,0,0.6-0.1,0.9-0.2c0.2-0.2,0.4-0.4,0.4-0.6v-19.6C612.3,192.4,612.2,192.1,612,192z"/>
	<path d="M626.9,210.9h-8v-18.3c0-0.3-0.1-0.5-0.4-0.6c-0.2-0.1-0.5-0.2-0.9-0.2c-0.3,0-0.6,0.1-0.9,0.2s-0.4,0.4-0.4,0.6v19.6
		c0,0.3,0.1,0.5,0.3,0.6c0.2,0.2,0.5,0.2,0.8,0.2h9.3c0.3,0,0.4-0.1,0.6-0.3c0.1-0.2,0.2-0.5,0.2-0.8s-0.1-0.5-0.2-0.8
		C627.4,211,627.2,210.9,626.9,210.9z"/>
	<path d="M636.5,191.8h-5.2c-0.3,0-0.6,0.1-0.8,0.2c-0.2,0.2-0.3,0.4-0.3,0.6v19.7c0,0.2,0.1,0.4,0.3,0.6c0.2,0.2,0.5,0.2,0.8,0.2
		h5.2c1.9,0,3.4-0.5,4.6-1.5s1.7-2.6,1.7-4.8v-8.6c0-2.2-0.6-3.8-1.7-4.8S638.4,191.8,636.5,191.8z M640.3,206.8
		c0,1.4-0.3,2.4-1,3.1c-0.7,0.7-1.6,1-2.8,1h-3.8V194h3.8c1.2,0,2.2,0.3,2.8,1c0.7,0.7,1,1.7,1,3.1V206.8z"/>
	<path d="M657.3,191.8h-11.9c-0.3,0-0.5,0.1-0.6,0.3c-0.2,0.2-0.2,0.5-0.2,0.8c0,0.3,0.1,0.6,0.2,0.8c0.2,0.2,0.4,0.3,0.6,0.3h4.7
		v18.3c0,0.3,0.1,0.5,0.4,0.6c0.2,0.2,0.5,0.2,0.9,0.2c0.3,0,0.6-0.1,0.9-0.2c0.2-0.2,0.4-0.4,0.4-0.6V194h4.7
		c0.3,0,0.5-0.1,0.6-0.3c0.2-0.2,0.2-0.5,0.2-0.8c0-0.3-0.1-0.5-0.2-0.8C657.8,191.9,657.6,191.8,657.3,191.8z"/>
	<path d="M672.2,194c0.3,0,0.5-0.1,0.6-0.3c0.2-0.2,0.2-0.5,0.2-0.8c0-0.3-0.1-0.5-0.2-0.8c-0.1-0.2-0.4-0.3-0.6-0.3h-10.4
		c-0.3,0-0.6,0.1-0.8,0.2c-0.2,0.2-0.3,0.4-0.3,0.6v19.6c0,0.3,0.1,0.5,0.3,0.6c0.2,0.2,0.5,0.2,0.8,0.2h10.4c0.3,0,0.5-0.1,0.6-0.3
		c0.1-0.2,0.2-0.5,0.2-0.8c0-0.3-0.1-0.6-0.2-0.8c-0.2-0.2-0.4-0.3-0.6-0.3h-9.1v-7.4h4.6c0.3,0,0.5-0.1,0.6-0.3
		c0.1-0.2,0.2-0.4,0.2-0.7c0-0.3-0.1-0.5-0.2-0.7c-0.2-0.2-0.4-0.3-0.6-0.3h-4.6V194H672.2z"/>
	<path d="M684.1,203.3c2.9-0.6,4.4-2.5,4.4-5.7c0-2.1-0.6-3.6-1.8-4.5c-1.2-0.9-2.8-1.4-4.7-1.4h-5.3c-0.3,0-0.5,0.1-0.6,0.3
		c-0.2,0.2-0.2,0.3-0.2,0.6v19.6c0,0.3,0.1,0.5,0.4,0.6c0.2,0.2,0.5,0.2,0.9,0.2c0.3,0,0.6-0.1,0.9-0.2c0.2-0.2,0.4-0.4,0.4-0.6
		v-8.6h3.4l4.4,8.6c0.3,0.6,0.7,1,1.1,1c0.4,0,0.7-0.1,1-0.4c0.3-0.3,0.5-0.5,0.5-0.9c0-0.1,0-0.3-0.1-0.4L684.1,203.3z
		 M678.2,201.6V194h3.8c2.7,0,4,1.3,4,3.8c0,2.6-1.3,3.8-4,3.8H678.2z"/>
	<path d="M705,212l-6-19.5c-0.2-0.6-0.7-0.9-1.5-0.9s-1.3,0.3-1.5,0.9l-6,19.4c0,0.1-0.1,0.2-0.1,0.2c0,0.3,0.2,0.5,0.5,0.7
		c0.3,0.2,0.6,0.3,1,0.3c0.5,0,0.8-0.2,0.9-0.6l1.3-4.3h7.7l1.3,4.3c0.1,0.4,0.4,0.6,0.9,0.6c0.4,0,0.7-0.1,1-0.3
		c0.3-0.2,0.5-0.4,0.5-0.7c0,0,0,0,0-0.1C705,212,705,212,705,212z M694.2,206.2l3.3-11l3.2,11H694.2z"/>
	<path d="M714.2,191.8h-5.5c-0.3,0-0.5,0.1-0.7,0.2c-0.2,0.2-0.3,0.4-0.3,0.6v19.6c0,0.3,0.1,0.5,0.4,0.6c0.2,0.2,0.5,0.2,0.9,0.2
		c0.3,0,0.6-0.1,0.9-0.2c0.2-0.2,0.4-0.4,0.4-0.6v-7.6h3.9c1.9,0,3.4-0.5,4.6-1.5c1.1-1,1.7-2.6,1.7-4.8v-0.3c0-2.2-0.6-3.8-1.7-4.8
		C717.5,192.3,716,191.8,714.2,191.8z M717.9,198.5c0,1.4-0.3,2.4-1,3.1c-0.7,0.7-1.6,1-2.8,1h-3.9V194h3.9c1.2,0,2.2,0.3,2.8,1
		c0.7,0.7,1,1.7,1,3.1V198.5z"/>
	<path d="M725.4,192c-0.2-0.1-0.5-0.2-0.9-0.2c-0.3,0-0.6,0.1-0.9,0.2c-0.2,0.1-0.4,0.4-0.4,0.6v19.6c0,0.3,0.1,0.5,0.4,0.6
		c0.2,0.2,0.5,0.2,0.9,0.2c0.3,0,0.6-0.1,0.9-0.2c0.2-0.2,0.4-0.4,0.4-0.6v-19.6C725.7,192.4,725.6,192.1,725.4,192z"/>
	<path d="M742.3,192c-0.2-0.1-0.5-0.2-0.9-0.2c-0.3,0-0.6,0.1-0.9,0.2c-0.2,0.1-0.4,0.4-0.4,0.6v8.4h-7.9v-8.4
		c0-0.3-0.1-0.5-0.4-0.6c-0.2-0.1-0.5-0.2-0.9-0.2c-0.3,0-0.6,0.1-0.9,0.2c-0.2,0.1-0.4,0.4-0.4,0.6v19.6c0,0.3,0.1,0.5,0.4,0.6
		c0.2,0.2,0.5,0.2,0.9,0.2c0.3,0,0.6-0.1,0.9-0.2c0.2-0.2,0.4-0.4,0.4-0.6v-9.2h7.9v9.2c0,0.3,0.1,0.5,0.4,0.6
		c0.2,0.2,0.5,0.2,0.9,0.2c0.3,0,0.6-0.1,0.9-0.2c0.2-0.2,0.4-0.4,0.4-0.6v-19.6C742.7,192.4,742.6,192.1,742.3,192z"/>
	<path d="M759.2,192c-0.2-0.1-0.5-0.2-0.9-0.2c-0.8,0-1.2,0.3-1.2,0.8v14.3c0,1.4-0.3,2.4-1,3.1c-0.7,0.7-1.7,1-2.9,1
		c-2.6,0-3.9-1.4-3.9-4.1v-14.3c0-0.3-0.1-0.5-0.4-0.6c-0.2-0.1-0.5-0.2-0.9-0.2c-0.3,0-0.6,0.1-0.9,0.2c-0.2,0.1-0.4,0.4-0.4,0.6
		v14.3c0,2.2,0.6,3.8,1.7,4.8c1.2,1,2.7,1.5,4.6,1.5c1.9,0,3.5-0.5,4.6-1.5c1.2-1,1.8-2.6,1.8-4.8v-14.3
		C759.5,192.4,759.4,192.1,759.2,192z"/>
	<path d="M771.7,201.6c-0.9-0.4-1.9-0.8-2.8-1.1c-0.9-0.3-1.7-0.8-2.4-1.3c-0.7-0.6-1-1.3-1-2.2c0-1.1,0.4-1.8,1.1-2.3
		c0.7-0.5,1.7-0.7,2.9-0.7c1,0,1.9,0.2,2.7,0.6c0.8,0.4,1.3,0.6,1.3,0.6c0.3,0,0.6-0.2,0.8-0.5c0.2-0.3,0.3-0.6,0.3-0.9
		c0-0.6-0.6-1.1-1.7-1.5c-1.1-0.3-2.3-0.5-3.5-0.5c-0.8,0-1.5,0.1-2.2,0.3c-0.7,0.2-1.4,0.5-2,0.8c-0.7,0.4-1.2,1-1.6,1.7
		s-0.6,1.6-0.6,2.7c0,1.3,0.3,2.4,1,3.2c0.7,0.8,1.5,1.4,2.4,1.8c0.9,0.4,1.9,0.8,2.8,1.1s1.7,0.9,2.4,1.5c0.7,0.7,1,1.5,1,2.6
		c0,1.2-0.4,2.1-1.1,2.7c-0.7,0.6-1.7,0.9-3,0.9c-0.8,0-1.5-0.1-2.1-0.4c-0.6-0.2-1.1-0.5-1.4-0.8c-0.3-0.3-0.6-0.6-0.8-0.8
		c-0.3-0.2-0.5-0.4-0.7-0.4c-0.3,0-0.5,0.1-0.7,0.4c-0.2,0.3-0.3,0.6-0.3,0.9c0,0.7,0.6,1.4,1.8,2.2c1.2,0.7,2.7,1.1,4.4,1.1
		c1.9,0,3.5-0.5,4.6-1.5c1.2-1,1.8-2.5,1.8-4.5c0-1.5-0.3-2.7-1-3.6C773.4,202.7,772.6,202.1,771.7,201.6z"/>
	<path d="M789.8,194c0.3,0,0.5-0.1,0.6-0.3c0.2-0.2,0.2-0.5,0.2-0.8c0-0.3-0.1-0.5-0.2-0.8c-0.1-0.2-0.4-0.3-0.6-0.3h-10.4
		c-0.3,0-0.6,0.1-0.8,0.2c-0.2,0.2-0.3,0.4-0.3,0.6v19.6c0,0.3,0.1,0.5,0.3,0.6c0.2,0.2,0.5,0.2,0.8,0.2h10.4c0.3,0,0.5-0.1,0.6-0.3
		c0.1-0.2,0.2-0.5,0.2-0.8c0-0.3-0.1-0.6-0.2-0.8c-0.2-0.2-0.4-0.3-0.6-0.3h-9.1v-7.4h4.6c0.3,0,0.5-0.1,0.6-0.3
		c0.1-0.2,0.2-0.4,0.2-0.7c0-0.3-0.1-0.5-0.2-0.7c-0.2-0.2-0.4-0.3-0.6-0.3h-4.6V194H789.8z"/>
	<path d="M804.3,191.8h-11.9c-0.3,0-0.5,0.1-0.6,0.3c-0.2,0.2-0.2,0.5-0.2,0.8c0,0.3,0.1,0.6,0.2,0.8c0.2,0.2,0.4,0.3,0.6,0.3h4.7
		v18.3c0,0.3,0.1,0.5,0.4,0.6c0.2,0.2,0.5,0.2,0.9,0.2c0.3,0,0.6-0.1,0.9-0.2c0.2-0.2,0.4-0.4,0.4-0.6V194h4.7
		c0.3,0,0.5-0.1,0.6-0.3c0.2-0.2,0.2-0.5,0.2-0.8c0-0.3-0.1-0.5-0.2-0.8C804.8,191.9,804.6,191.8,804.3,191.8z"/>
</g>
<path d="M780.4,155.3L674.3,78.4c0.3,2.9-0.1,5.7-1.4,7.7c-2,3.1-5.9,4.6-10.6,4.6L777.9,159C780.4,160.5,782.7,157,780.4,155.3z"/>
<path d="M637.5,79.4c11.8,7.8,25,8.5,29.5,1.8c4.5-6.8-1.1-21.6-13.3-26.3c-12.3-4.8-23.5-2.1-36.9-12
	C624.8,63.9,625.7,71.7,637.5,79.4z"/>
<rect x="1318" y="27.9" transform="matrix(0.7071 -0.7071 0.7071 0.7071 367.0755 946.9608)" class="st1" width="17.3" height="5"/>
<rect x="1446.9" y="-68.2" transform="matrix(0.7071 -0.7071 0.7071 0.7071 472.7563 1009.9671)" class="st1" width="17.3" height="5"/>
<rect x="1318" y="-68.2" transform="matrix(-0.7071 -0.7071 0.7071 -0.7071 2311.1282 825.9332)" class="st1" width="17.3" height="5"/>
<rect x="1446.9" y="28.4" transform="matrix(-0.7071 -0.7071 0.7071 -0.7071 2462.8809 1081.9338)" class="st1" width="17.3" height="5"/>
<text transform="matrix(1 0 0 1 1300.0227 57.9233)" style="font-family:'Quicksand-Bold'; font-size:21px;">BILDTERAPIHUSET</text>
<rect x="1351.3" y="-46.8" class="st1" width="2.9" height="2.1"/>
<path class="st4" d="M1444.6,21.7l-81-47.9c-0.7-0.4-1-1.4-0.5-2.1l4.8-7.3c0.5-0.7,1.5-0.9,2.2-0.4l76.2,55.2
	C1447.8,20.3,1446.3,22.6,1444.6,21.7z"/>
<path class="st1" d="M1373.3-27.9c-3,4.6-12,4.1-20-1.2c-8-5.3-8.7-10.6-14.1-24.9c9.1,6.7,16.7,4.9,25.1,8.2
	C1372.5-42.6,1376.3-32.5,1373.3-27.9z"/>
<path class="st5" d="M1369.3-31.2c-3,4.6-12,4.1-20-1.2c-8-5.3-8.7-10.6-14.1-24.9c9.1,6.7,16.7,4.9,25.1,8.2
	C1368.5-45.8,1372.3-35.8,1369.3-31.2z"/>
<rect x="1132.5" y="-188.2" width="200" height="100"/>
<rect x="1142.5" y="-178.2" class="st1" width="180" height="80"/>
<rect x="1130" y="-96.8" transform="matrix(0.7071 -0.7071 0.7071 0.7071 400.1723 777.4794)" class="st1" width="17.3" height="5"/>
<rect x="1318.2" y="-184.6" transform="matrix(0.7071 -0.7071 0.7071 0.7071 517.358 884.8909)" class="st1" width="17.3" height="5"/>
<rect x="1130" y="-184.6" transform="matrix(-0.7071 -0.7071 0.7071 -0.7071 2072.4258 494.305)" class="st1" width="17.3" height="5"/>
<rect x="1318.2" y="-96.8" transform="matrix(-0.7071 -0.7071 0.7071 -0.7071 2331.74 777.2164)" class="st1" width="17.3" height="5"/>
<path d="M1225-203.1l-57.2-39.7c-0.7-0.5-0.9-1.5-0.3-2.2l3.9-5.2c0.5-0.7,1.5-0.8,2.2-0.2l53.3,44.9
	C1228.3-204.3,1226.6-202,1225-203.1z"/>
<path class="st1" d="M1173.4-245.3c-2.7,3.5-9.9,2.6-16.1-2.1s-6.4-9-9.9-20.9c7,6,13.2,5,19.8,8.1
	C1173.6-257.2,1176.1-248.8,1173.4-245.3z"/>
<path d="M1172.3-246.7c-2.7,3.5-9.9,2.6-16.1-2.1s-6.4-9-9.9-20.9c7,6,13.2,5,19.8,8.1C1172.6-258.6,1175-250.2,1172.3-246.7z"/>
</svg>
